<svg width="38" height="54" viewBox="0 0 38 54" fill="none" xmlns="http://www.w3.org/2000/svg">
<path d="M19.61 10.0462L22.0436 14.9866L27.494 15.7743C28.0521 15.8549 28.2753 16.5408 27.8713 16.9344L23.9292 20.7757L24.8598 26.2034C24.955 26.7592 24.3716 27.1829 23.8726 26.92L19.0001 24.3536L14.1273 26.92C13.6283 27.1829 13.0445 26.7589 13.1403 26.2029L14.0756 20.7757L10.1289 16.9347C9.72456 16.5412 9.94755 15.8549 10.5059 15.7743L15.9564 14.9866L18.39 10.0462C18.6393 9.5401 19.3609 9.5401 19.61 10.0462Z" fill="#FF4600"/>
<path d="M37.6668 19C37.6668 8.69073 29.3095 0.333374 19.0002 0.333374C8.69086 0.333374 0.333496 8.69073 0.333496 19C0.333496 24.0854 2.36699 28.6958 5.66515 32.0622L5.66896 51.6672L5.68747 51.9459C5.88214 53.3928 7.57347 54.1806 8.82056 53.3024L18.9978 46.1352L29.1802 53.3027L29.4188 53.448C30.7138 54.1216 32.3314 53.1923 32.3314 51.6672L32.3351 32.0622C35.6332 28.6958 37.6668 24.0854 37.6668 19ZM28.3319 35.1704L28.3314 47.8136L20.1484 42.0539L19.8796 41.8942C19.2311 41.5752 18.45 41.6286 17.8458 42.0542L9.66896 47.8126L9.66838 35.1704C12.4137 36.7579 15.6007 37.6667 19.0002 37.6667C22.3996 37.6667 25.5866 36.7579 28.3319 35.1704ZM4.3335 19C4.3335 10.8999 10.9 4.33337 19.0002 4.33337C27.1004 4.33337 33.6668 10.8999 33.6668 19C33.6668 27.1003 27.1004 33.6667 19.0002 33.6667C10.9 33.6667 4.3335 27.1003 4.3335 19Z" fill="#FF4600"/>
</svg>
